<?xml version="1.0" encoding="UTF-8" standalone="no"?>
<!-- Creator: CorelDRAW 2021.5 (Versão de avaliação) -->

<svg
   xml:space="preserve"
   width="210cm"
   height="210cm"
   version="1.1"
   style="clip-rule:evenodd;fill-rule:evenodd;image-rendering:optimizeQuality;shape-rendering:geometricPrecision;text-rendering:geometricPrecision"
   viewBox="0 0 210000 210000"
   id="svg10"
   sodipodi:docname="MACAINSTAGRAM.svg"
   inkscape:version="1.2.2 (732a01da63, 2022-12-09)"
   xmlns:inkscape="http://www.inkscape.org/namespaces/inkscape"
   xmlns:sodipodi="http://sodipodi.sourceforge.net/DTD/sodipodi-0.dtd"
   xmlns:xlink="http://www.w3.org/1999/xlink"
   xmlns="http://www.w3.org/2000/svg"
   xmlns:svg="http://www.w3.org/2000/svg"><sodipodi:namedview
   id="namedview12"
   pagecolor="#8b0300"
   bordercolor="#000000"
   borderopacity="0.25"
   inkscape:showpageshadow="2"
   inkscape:pageopacity="0"
   inkscape:pagecheckerboard="0"
   inkscape:deskcolor="#d1d1d1"
   inkscape:document-units="mm"
   showgrid="false"
   inkscape:zoom="0.039462003"
   inkscape:cx="1140.3375"
   inkscape:cy="2229.9932"
   inkscape:window-width="1366"
   inkscape:window-height="705"
   inkscape:window-x="-8"
   inkscape:window-y="-8"
   inkscape:window-maximized="1"
   inkscape:current-layer="Camada_x0020_1" />
 <defs
   id="defs4"><inkscape:path-effect
   effect="powerclip"
   id="path-effect1135"
   is_visible="true"
   lpeversion="1"
   inverse="true"
   flatten="false"
   hide_clip="false"
   message="Usar a regra de preenchimento par ou ímpar na caixa de diálogo &lt;b&gt;preenchimento e contorno&lt;/b&gt; se nenhum resultado nivelar após converter o clipe em caminhos." />
  <style
   type="text/css"
   id="style2">
   <![CDATA[
    .fil0 {fill:#8B0300}
   ]]>
  </style>
 <inkscape:path-effect
   effect="powerclip"
   id="path-effect4023"
   is_visible="true"
   lpeversion="1"
   inverse="true"
   flatten="false"
   hide_clip="false"
   message="Usar a regra de preenchimento par ou ímpar na caixa de diálogo &lt;b&gt;preenchimento e contorno&lt;/b&gt; se nenhum resultado nivelar após converter o clipe em caminhos." /><linearGradient
   id="paint0_linear_229_197"
   x1="193.64999"
   y1="178.58"
   x2="193.64999"
   y2="-0.034078501"
   gradientUnits="userSpaceOnUse"
   gradientTransform="matrix(0.72667099,0,0,0.72667099,-34.927638,32.304569)"><stop
     stop-color="#0062E0"
     id="stop3349"
     offset="0"
     style="stop-color:#ffffe0;stop-opacity:1;" /><stop
     offset="1"
     stop-color="#19AFFF"
     id="stop3351" /></linearGradient><clipPath
   clipPathUnits="userSpaceOnUse"
   id="clipPath4019"><path
     d="M 131.98505,118.34894 135.008,99.526739 H 117.20747 V 86.418373 c 0,-5.377712 2.01506,-9.411123 10.07602,-9.411123 h 8.73241 V 59.865602 c -4.70229,-0.672171 -10.07602,-1.344427 -14.77831,-1.344427 -15.44903,0 -26.196489,9.411123 -26.196489,26.216642 V 99.526739 H 78.24846 v 18.822201 h 16.792641 v 47.39132 c 3.694391,0.67217 7.388789,1.00864 11.083189,1.00864 3.69439,0 7.38879,-0.33647 11.08318,-1.00864 v -47.39132 z"
     fill="#ffffff"
     id="path4021"
     style="display:block;fill:#ffffff;fill-opacity:1;stroke-width:0.72667"
     inkscape:label="path3327" /></clipPath><linearGradient
   id="b"><stop
     offset="0"
     stop-color="#3771c8"
     id="stop2" /><stop
     stop-color="#3771c8"
     offset=".128"
     id="stop4" /><stop
     offset="1"
     stop-color="#60f"
     stop-opacity="0"
     id="stop6" /></linearGradient><linearGradient
   id="a"><stop
     offset="0"
     stop-color="#fd5"
     id="stop9" /><stop
     offset=".1"
     stop-color="#fd5"
     id="stop11" /><stop
     offset=".5"
     stop-color="#ff543e"
     id="stop13" /><stop
     offset="1"
     stop-color="#c837ab"
     id="stop15" /></linearGradient><radialGradient
   id="c"
   cx="158.429"
   cy="578.08801"
   r="65"
   xlink:href="#a"
   gradientUnits="userSpaceOnUse"
   gradientTransform="matrix(0,-12.067984,11.227235,0,-6279.0331,2765.3634)"
   fx="158.429"
   fy="578.08801" /><radialGradient
   id="d"
   cx="147.694"
   cy="473.45499"
   r="65"
   xlink:href="#b"
   gradientUnits="userSpaceOnUse"
   gradientTransform="matrix(1.059095,5.2895079,-21.809051,4.3668032,10037.569,-2790.6962)"
   fx="147.694"
   fy="473.45499" /></defs>
 <g
   id="Camada_x0020_1"
   inkscape:label="Camada 1"
   inkscape:groupmode="layer">
  <metadata
   id="CorelCorpID_0Corel-Layer" />
  <path
   id="path7"
   clip-path="none"
   style="display:inline;fill:#ffffff;fill-opacity:1;stroke-width:52.2237"
   class="fil0"
   d="M 127240.68 711.94903 C 111933.46 -5974.2234 100776.92 29489.767 99368.972 45743.8 C 89075.723 44940.609 58180.735 31753.14 35516.788 50673.703 C 17616.142 65618.498 15542.856 80999.417 18136.273 111667.66 C 21182.991 147700.81 45077.379 210849.01 78749.511 209882.89 C 91023.074 209530.9 99346.512 201575.68 112092.18 205157.69 C 123138.49 208260.3 133153.42 213346.32 144821.71 206862.76 C 178766.45 187999.11 205996.85 102624.04 185954.53 63999.033 C 179469.41 51497.779 173927.97 52135.955 164572.14 44422.544 C 164846.32 44226.184 165283.93 43627.147 165424.94 43883.039 C 165563.85 44136.325 166080.88 43465.272 166275.67 43358.735 C 166522.68 43222.429 167670.53 42581.119 168012.07 42408.783 C 177560.62 37579.153 182390.31 36281.914 192265.78 28599.842 C 186576.02 23636.521 185398.32 22075.566 175950.05 19542.727 C 136132.78 8861.4608 120906.46 33232.06 112561.16 36982.756 C 115467.39 14254.05 130005.91 13565.19 127240.68 711.94903 z M 104988.38 70316.428 L 105004.98 70316.428 C 104999.5 70316.428 105002.13 70316.532 104996.65 70316.532 C 119442.18 70316.579 121258.57 70379.754 126934.22 70638.043 C 132600.89 70897.549 136471.08 71794.632 139864.46 73110.957 C 143368.69 74469.416 146329.59 76288.074 149290.45 79248.931 C 152251.3 82207.557 154069.92 85177.325 155433.9 88678.229 C 156742.48 92062.713 157640.71 95930.72 157906.87 101597.35 C 158161.91 107275.13 158228.48 109089.37 158228.48 123545.46 C 158228.48 138001.57 158161.91 139811.4 157906.87 145489.13 C 157640.71 151153.6 156742.48 155022.69 155433.9 158408.3 C 154069.92 161908.09 152251.3 164877.84 149290.45 167836.46 C 146332.89 170797.31 143367.56 172620.41 139867.72 173979.97 C 136481.05 175296.24 132608.63 176193.42 126941.97 176452.88 C 121264.25 176711.26 119455.54 176774.5 104998.31 176774.5 C 90543.313 176774.5 88730.157 176711.26 83052.422 176452.88 C 77386.864 176193.42 73517.788 175296.24 70131.074 173979.97 C 66632.392 172620.41 63662.65 170797.31 60705.085 167836.46 C 57745.348 164877.84 55926.718 161908.07 54566.026 158407.17 C 53250.818 155022.66 52353.732 151154.65 52093.111 145488.04 C 51835.834 139810.26 51771.549 138001.57 51771.549 123545.46 C 51771.549 109089.37 51838.055 107274 52091.974 101596.27 C 52347.072 95931.773 53245.308 92062.693 54564.94 88677.143 C 55928.921 85177.305 57747.576 82207.557 60708.446 79248.931 C 63667.062 76289.191 66636.845 74470.483 70137.744 73110.957 C 73522.228 71794.632 77390.192 70897.549 83056.868 70638.043 C 88732.487 70379.755 90555.601 70316.58 104996.65 70316.532 C 104991.21 70316.532 104993.83 70316.428 104988.38 70316.428 z M 100229.89 79895.469 C 90309.347 79906.522 88406.38 79973.069 83496.012 80194.901 C 78306.206 80433.31 75488.359 81298.262 73612.058 82030.171 C 71128.023 82997.148 69353.745 84150.466 67490.734 86013.483 C 65627.722 87876.497 64472.175 89650.778 63507.422 92134.808 C 62778.86 94011.109 61911.675 96827.824 61674.323 102017.62 C 61419.287 107628.89 61368.273 109305.64 61368.273 123519.97 C 61368.273 137734.33 61419.287 139419.91 61674.323 145031.16 C 61910.556 150220.96 62778.86 153037.69 63507.422 154911.81 C 64474.404 157396.9 65627.722 159166.75 67490.734 161029.77 C 69353.745 162892.79 71128.023 164046.12 73612.058 165010.86 C 75489.479 165739.41 78306.206 166606.66 83496.012 166846.18 C 89107.252 167101.21 90791.69 167156.63 105004.98 167156.63 C 119217.1 167156.63 120902.75 167101.21 126513.95 166846.18 C 131703.74 166608.84 134522.7 165743.9 136396.81 165012 C 138881.92 164047.26 140650.66 162893.94 142513.69 161030.91 C 144376.68 159169.01 145532.26 157400.21 146497 154916.2 C 147225.58 153042.12 148092.74 150225.42 148330.1 145035.56 C 148585.14 139424.35 148640.55 137738.73 148640.55 123533.26 C 148640.55 109327.79 148585.14 107642.18 148330.1 102030.96 C 148093.88 96841.116 147225.58 94024.437 146497 92150.319 C 145530.02 89666.284 144376.68 87892.009 142513.69 86028.995 C 140651.79 84165.981 138880.8 83012.648 136396.81 82047.906 C 134520.46 81319.339 131703.74 80452.153 126513.95 80214.808 C 120901.63 79959.766 119217.1 79908.757 105004.98 79908.757 C 103228.42 79908.757 101647.12 79906.535 100229.89 79908.757 L 100229.89 79895.469 z M 133418.21 88744.775 C 136944.63 88744.775 139805.67 91605.815 139805.67 95132.284 C 139805.67 98658.692 136944.63 101519.74 133418.21 101519.74 C 129891.74 101519.74 127030.7 98658.692 127030.7 95132.284 C 127030.7 91604.706 129891.74 88746.999 133418.21 88746.999 L 133418.21 88744.775 z M 105003.89 96210.158 L 105004.98 96210.158 C 105004.78 96210.158 105004.61 96210.261 105004.41 96210.261 C 120100.09 96210.558 132335.89 108449.67 132335.89 123545.46 C 132335.89 138641.4 120100.9 150875.24 105004.98 150875.24 C 89908.979 150875.24 77669.673 138641.4 77669.673 123545.46 C 77669.673 108449.69 89908.687 96210.587 105004.41 96210.261 C 105004.23 96210.261 105004.08 96210.158 105003.89 96210.158 z M 105004.98 105802.49 C 95205.275 105802.49 87262.002 113745.76 87262.002 123545.46 C 87262.002 133344 95205.275 141288.49 105004.98 141288.49 C 114803.51 141288.49 122748.01 133344 122748.01 123545.46 C 122748.01 113745.76 114803.51 105802.49 105004.98 105802.49 z "
   transform="matrix(0.99941877,0,0,0.99941877,10.009327,122.05731)" />
 </g>
</svg>
