<?xml version="1.0" encoding="UTF-8" standalone="no"?>
<!-- Creator: CorelDRAW 2021.5 (Versão de avaliação) -->

<svg
   xml:space="preserve"
   width="210cm"
   height="210cm"
   version="1.1"
   style="clip-rule:evenodd;fill-rule:evenodd;image-rendering:optimizeQuality;shape-rendering:geometricPrecision;text-rendering:geometricPrecision"
   viewBox="0 0 210000 210000"
   id="svg10"
   sodipodi:docname="MACATWITTER.svg"
   inkscape:version="1.2.2 (732a01da63, 2022-12-09)"
   xmlns:inkscape="http://www.inkscape.org/namespaces/inkscape"
   xmlns:sodipodi="http://sodipodi.sourceforge.net/DTD/sodipodi-0.dtd"
   xmlns:xlink="http://www.w3.org/1999/xlink"
   xmlns="http://www.w3.org/2000/svg"
   xmlns:svg="http://www.w3.org/2000/svg"><sodipodi:namedview
   id="namedview12"
   pagecolor="#8b0300"
   bordercolor="#000000"
   borderopacity="0.25"
   inkscape:showpageshadow="2"
   inkscape:pageopacity="0"
   inkscape:pagecheckerboard="0"
   inkscape:deskcolor="#d1d1d1"
   inkscape:document-units="mm"
   showgrid="false"
   inkscape:zoom="0.039462003"
   inkscape:cx="506.81665"
   inkscape:cy="2458.0607"
   inkscape:window-width="1366"
   inkscape:window-height="705"
   inkscape:window-x="-8"
   inkscape:window-y="-8"
   inkscape:window-maximized="1"
   inkscape:current-layer="Camada_x0020_1" />
 <defs
   id="defs4"><inkscape:path-effect
   effect="powerclip"
   id="path-effect1181"
   is_visible="true"
   lpeversion="1"
   inverse="true"
   flatten="false"
   hide_clip="false"
   message="Usar a regra de preenchimento par ou ímpar na caixa de diálogo &lt;b&gt;preenchimento e contorno&lt;/b&gt; se nenhum resultado nivelar após converter o clipe em caminhos." /><inkscape:path-effect
   effect="powerclip"
   id="path-effect1135"
   is_visible="true"
   lpeversion="1"
   inverse="true"
   flatten="false"
   hide_clip="false"
   message="Usar a regra de preenchimento par ou ímpar na caixa de diálogo &lt;b&gt;preenchimento e contorno&lt;/b&gt; se nenhum resultado nivelar após converter o clipe em caminhos." />
  <style
   type="text/css"
   id="style2">
   <![CDATA[
    .fil0 {fill:#8B0300}
   ]]>
  </style>
 <inkscape:path-effect
   effect="powerclip"
   id="path-effect4023"
   is_visible="true"
   lpeversion="1"
   inverse="true"
   flatten="false"
   hide_clip="false"
   message="Usar a regra de preenchimento par ou ímpar na caixa de diálogo &lt;b&gt;preenchimento e contorno&lt;/b&gt; se nenhum resultado nivelar após converter o clipe em caminhos." /><linearGradient
   id="paint0_linear_229_197"
   x1="193.64999"
   y1="178.58"
   x2="193.64999"
   y2="-0.034078501"
   gradientUnits="userSpaceOnUse"
   gradientTransform="matrix(0.72667099,0,0,0.72667099,-34.927638,32.304569)"><stop
     stop-color="#0062E0"
     id="stop3349"
     offset="0"
     style="stop-color:#ffffe0;stop-opacity:1;" /><stop
     offset="1"
     stop-color="#19AFFF"
     id="stop3351" /></linearGradient><clipPath
   clipPathUnits="userSpaceOnUse"
   id="clipPath4019"><path
     d="M 131.98505,118.34894 135.008,99.526739 H 117.20747 V 86.418373 c 0,-5.377712 2.01506,-9.411123 10.07602,-9.411123 h 8.73241 V 59.865602 c -4.70229,-0.672171 -10.07602,-1.344427 -14.77831,-1.344427 -15.44903,0 -26.196489,9.411123 -26.196489,26.216642 V 99.526739 H 78.24846 v 18.822201 h 16.792641 v 47.39132 c 3.694391,0.67217 7.388789,1.00864 11.083189,1.00864 3.69439,0 7.38879,-0.33647 11.08318,-1.00864 v -47.39132 z"
     fill="#ffffff"
     id="path4021"
     style="display:block;fill:#ffffff;fill-opacity:1;stroke-width:0.72667"
     inkscape:label="path3327" /></clipPath><linearGradient
   id="b"><stop
     offset="0"
     stop-color="#3771c8"
     id="stop2" /><stop
     stop-color="#3771c8"
     offset=".128"
     id="stop4" /><stop
     offset="1"
     stop-color="#60f"
     stop-opacity="0"
     id="stop6" /></linearGradient><linearGradient
   id="a"><stop
     offset="0"
     stop-color="#fd5"
     id="stop9" /><stop
     offset=".1"
     stop-color="#fd5"
     id="stop11" /><stop
     offset=".5"
     stop-color="#ff543e"
     id="stop13" /><stop
     offset="1"
     stop-color="#c837ab"
     id="stop15" /></linearGradient><radialGradient
   id="c"
   cx="158.429"
   cy="578.08801"
   r="65"
   xlink:href="#a"
   gradientUnits="userSpaceOnUse"
   gradientTransform="matrix(0,-12.067984,11.227235,0,-6279.0331,2765.3634)"
   fx="158.429"
   fy="578.08801" /><radialGradient
   id="d"
   cx="147.694"
   cy="473.45499"
   r="65"
   xlink:href="#b"
   gradientUnits="userSpaceOnUse"
   gradientTransform="matrix(1.059095,5.2895079,-21.809051,4.3668032,10037.569,-2790.6962)"
   fx="147.694"
   fy="473.45499" /></defs>
 <g
   id="Camada_x0020_1"
   inkscape:label="Camada 1"
   inkscape:groupmode="layer">
  <metadata
   id="CorelCorpID_0Corel-Layer" />
  <path
   id="path7"
   clip-path="none"
   style="display:inline;fill:#ffffff;fill-opacity:1;stroke-width:52.2237"
   class="fil0"
   d="M 121705.97 60.602427 C 109296.65 2591.6282 100600.92 31521.521 99368.972 45743.8 C 89075.723 44940.609 58180.735 31753.14 35516.788 50673.703 C 17616.142 65618.498 15542.856 80999.417 18136.273 111667.66 C 21182.991 147700.81 45077.379 210849.01 78749.511 209882.89 C 91023.074 209530.9 99346.512 201575.68 112092.18 205157.69 C 123138.49 208260.3 133153.42 213346.32 144821.71 206862.76 C 178766.45 187999.11 205996.85 102624.04 185954.53 63999.033 C 179469.41 51497.779 173927.97 52135.955 164572.14 44422.544 C 164846.32 44226.184 165283.93 43627.147 165424.94 43883.039 C 165563.85 44136.325 166080.88 43465.272 166275.67 43358.735 C 166522.68 43222.429 167670.53 42581.119 168012.07 42408.783 C 177560.62 37579.153 182390.31 36281.914 192265.78 28599.842 C 186576.02 23636.521 185398.32 22075.566 175950.05 19542.727 C 136132.78 8861.4608 120906.46 33232.06 112561.16 36982.756 C 115467.39 14254.05 130005.91 13565.19 127240.68 711.94903 C 125327.28 -123.82252 123478.73 -300.97268 121705.97 60.602427 z M 127375.48 73233.863 C 134240.3 73233.863 140443.19 76131.77 144796.38 80770.549 C 150233.22 79700.286 155340.81 77714.429 159952.84 74978.854 C 158171.2 80552.372 154386.31 85229.597 149459.01 88183.294 C 154286.05 87606.316 158886.24 86323.749 163165.99 84425.319 C 163166.03 84425.258 163166.1 84425.225 163166.14 84425.164 L 163166.55 84425.164 C 163166.38 84425.242 163166.16 84425.24 163165.99 84425.319 C 159966.26 89211.763 155920.28 93414.868 151257.72 96779.187 C 151303.65 97803.492 151326.91 98832.407 151326.91 99867.202 C 151326.91 131407.46 127319.76 167775.04 83419.693 167775.04 C 69941.334 167775.04 57395.894 163823.76 46833.424 157051.42 C 48700.578 157271.88 50600.296 157385.34 52526.774 157385.34 C 63709.31 157385.34 74000.167 153569.59 82168.499 147167.78 C 71724.107 146975.84 62910.121 140075.5 59872.662 130593.78 C 61330.321 130871.8 62825.186 131021.86 64363.112 131021.86 C 66539.713 131021.86 68648.26 130730.44 70650.931 130184.83 C 59732.486 127990.79 51505.364 118345.03 51505.364 106781.5 C 51505.364 106680.87 51505.373 106580.84 51508.104 106481.39 C 54725.886 108268.83 58406.101 109342.57 62318.379 109466.46 C 55914.246 105186.55 51700.659 97881.433 51700.659 89600.828 C 51700.659 85226.703 52877.974 81127.086 54932.418 77602.183 C 66704.173 92042.039 84290.299 101544.16 104126.28 102539.39 C 103719.09 100792.65 103507.97 98970.874 103507.97 97100.233 C 103507.97 83919.679 114194.94 73233.863 127375.48 73233.863 z "
   transform="matrix(0.99941877,0,0,0.99941877,10.009327,122.05731)" />
 </g>
</svg>
