<?xml version="1.0" encoding="UTF-8"?>
<!DOCTYPE svg PUBLIC "-//W3C//DTD SVG 1.1//EN" "http://www.w3.org/Graphics/SVG/1.1/DTD/svg11.dtd">
<!-- Creator: CorelDRAW 2021.5 (Versão de avaliação) -->
<svg xmlns="http://www.w3.org/2000/svg" xml:space="preserve" width="208.5mm" height="55mm" version="1.1" style="shape-rendering:geometricPrecision; text-rendering:geometricPrecision; image-rendering:optimizeQuality; fill-rule:evenodd; clip-rule:evenodd"
viewBox="0 0 20850 5500"
 xmlns:xlink="http://www.w3.org/1999/xlink"
 xmlns:xodm="http://www.corel.com/coreldraw/odm/2003">
 <defs>
  <style type="text/css">
   <![CDATA[
    .fil1 {fill:#8B0300}
    .fil0 {fill:#FEFEFE}
   ]]>
  </style>
 </defs>
 <g id="Camada_x0020_1">
  <metadata id="CorelCorpID_0Corel-Layer"/>
  <g id="_1732608793408">
   <path class="fil0" d="M2513.34 1562.6c26.96,-311.24 240.59,-990.32 533.7,-862.29 52.95,246.12 -225.44,259.31 -281.09,694.53 159.8,-71.82 451.36,-538.48 1213.8,-333.95 180.92,48.5 203.47,78.39 312.42,173.43 -189.1,147.1 -281.58,171.94 -464.42,264.42 -6.54,3.3 -28.52,15.58 -33.25,18.19 -3.73,2.04 -13.63,14.89 -16.29,10.04 -2.7,-4.9 -11.08,6.57 -16.33,10.33 179.15,147.7 285.26,135.48 409.44,374.86 383.78,739.61 -137.64,2374.41 -787.63,2735.62 -223.43,124.15 -415.2,26.76 -626.72,-32.65 -244.06,-68.59 -403.44,83.74 -638.46,90.48 -644.77,18.5 -1102.31,-1190.69 -1160.65,-1880.67 -49.66,-587.25 -9.96,-881.77 332.81,-1167.94 433.98,-362.3 1025.57,-109.78 1222.67,-94.4zm-2410.92 1237.62c0,741.29 278.8,1244.41 711.43,1765.83 127.34,153.5 531.46,433.01 712.87,525.78 1071.24,547.87 2400.6,225.61 3147.34,-683.03 690.21,-839.86 782.03,-2161.85 133.45,-3059.16l-278.8 -352.67c-57.63,-66.17 -91.13,-84.68 -155.13,-136.31 -606.79,-489.67 -993.96,-634.87 -1842.43,-634.87 -619.95,0 -1196.65,319.93 -1623.47,708.1 -230.28,209.5 -458.39,533.84 -586.65,821.99 -115.29,259.04 -218.61,671.13 -218.61,1044.34z"/>
   <path class="fil1" d="M1998.06 2945.94c-20.48,-137.49 -32.73,6.94 -22.69,-141.91 2,-29.49 18.27,-84.71 27.79,-118.56 15.87,-56.39 49.23,-201.95 69.77,-246.69 85.68,-186.63 245.03,-6.32 295.03,8.11 128.43,37.04 -61.76,-27.68 104.16,-1.06 80.66,187.41 235.79,551.66 270.19,740.04 -30.32,-64.4 -12.45,-46.85 -64.95,-94.38 13.4,128.94 78.06,285.8 145.24,371.71l17.18 -35.03c58.64,-145.92 -18.21,64.69 13.94,-36.91 6.52,-20.66 9.7,-38.62 14.37,-60.39 10.65,-49.85 18.65,-98.82 27.11,-144.46 30.73,-165.8 129.92,-724.92 194.55,-812.32 377.96,63.94 129.43,46.01 199.11,175.35 98.96,-33.87 4.47,-18.81 87.92,-85.16l-213.25 1089.28c-11.65,67.38 -19.77,123.81 -29.38,193.4 -17.98,130.26 -19.36,110.07 -59.69,149.16l26.33 -273.28c-144.03,134.65 -9.81,340.44 -230.95,416.34 -82.29,28.23 -23.92,30.24 -129.11,-15.63 -38.15,-312.25 -80.58,-363.42 -184.28,-617.29 -52.95,-129.72 -162.44,-459.8 -243.88,-536.45 -121.06,175.67 -116.35,689.29 -157.86,940.66 -21.86,13.8 -61.93,32.21 -92.14,50.66 -67.41,41.13 -18.99,25.27 -90.04,58 -54.42,-95.55 -30.98,-126.85 -53.56,-238.84 -44.66,89.24 16.01,79.61 -43.57,156.8 -82.13,-135.17 34.82,-834.96 71.88,-885.39 60.5,-82.27 -17.7,-3.64 23.5,-12.5 2.18,-0.49 3.35,68.24 17.95,3.64 0.72,-3.21 6.09,3.67 9.33,3.1zm515.28 -1383.34c-197.1,-15.38 -788.69,-267.9 -1222.67,94.4 -342.77,286.17 -382.47,580.69 -332.81,1167.94 58.34,689.98 515.88,1899.17 1160.65,1880.67 235.02,-6.74 394.4,-159.07 638.46,-90.48 211.52,59.41 403.29,156.8 626.72,32.65 649.99,-361.21 1171.41,-1996.01 787.63,-2735.62 -124.18,-239.38 -230.29,-227.16 -409.44,-374.86 5.25,-3.76 13.63,-15.23 16.33,-10.33 2.66,4.85 12.56,-8 16.29,-10.04 4.73,-2.61 26.71,-14.89 33.25,-18.19 182.84,-92.48 275.32,-117.32 464.42,-264.42 -108.95,-95.04 -131.5,-124.93 -312.42,-173.43 -762.44,-204.53 -1054,262.13 -1213.8,333.95 55.65,-435.22 334.04,-448.41 281.09,-694.53 -293.11,-128.03 -506.74,551.05 -533.7,862.29z"/>
   <path class="fil0" d="M11298.86 3407.41l437.17 0c106.99,-223.04 270.13,-1394.73 388.6,-1481.54 2.73,123.24 290.85,1379.04 340.01,1481.54l437.17 0 291.45 -2647.29c-572.77,-133.45 -457.42,148.65 -475.55,277.33l-107.34 1301.3c-43.03,-67.81 -170.11,-746.35 -188.38,-831.66l-130.12 -647.09c-37.43,-141.22 -52.72,-124.18 -264.4,-124.18 -125.96,0 -134.68,223.83 -159.89,350.14 -31.67,158.74 -58.81,267.92 -89.21,420.82 -36.52,183.58 -163.77,706.87 -163.77,856.26l-147.16 -1528.63c-29.51,-125.99 -117.81,-98.59 -314.31,-98.59 -203.32,0 -138.46,144.03 -93.05,578.79l238.78 2092.8z"/>
   <path class="fil0" d="M19410.81 760.12l0 2647.29 437.17 0c67.64,-290.36 24.29,-1042.7 24.29,-1408.67l510.03 1408.67c325.36,0 415.72,26.56 437.18,-45.27l0 -2602.02c-162.74,-37.93 -298.71,-37.93 -461.47,0l-39.85 1351.32 -441.01 -1259.07c-51.61,-145.27 -92.94,-116.55 -344.89,-116.55 -38.27,0 -92.05,12.88 -121.45,24.3z"/>
   <path class="fil0" d="M7097.14 760.12l0 2647.29c574.9,0 461.47,122.46 461.47,-655.76 0,-250.97 0,-501.94 0,-752.91l66.06 152.55c26.57,68.7 39.79,102.92 64.63,178.22 45.01,136.43 83.39,228 127.63,358.11l251.71 719.79c524.21,0 438.47,69.01 437.2,-315.72l-0.03 -2331.57c-162.73,-37.93 -298.7,-37.93 -461.43,0l0 1432.9 -480.89 -1340.65c-51.35,-145.32 -93.52,-116.55 -344.89,-116.55 -38.27,0 -92.05,12.88 -121.46,24.3z"/>
   <path class="fil0" d="M17929.27 2824.51l0 -1481.53c0,-209.84 262.91,-162.02 437.2,-121.43l0 1384.38c0.35,227.7 105.39,460.75 -412.9,340.01 -12.68,-54.48 -24.3,-55.85 -24.3,-121.43zm-437.17 -1675.82l0 1845.81c0,502.72 550.65,412.91 898.64,412.91 223.98,0 412.9,-163.23 412.9,-388.61l0 -1870.11c0,-388.57 -379.16,-412.87 -704.35,-412.87 -328.28,0 -607.19,88.7 -607.19,412.87z"/>
   <path class="fil0" d="M13776.16 1245.85c0,991.41 -92.75,831.26 391.7,992.67 118.36,39.44 367.64,139.24 482.64,148.82 0,195.38 12.79,399.48 -24.27,558.6 -191.45,15.92 -208.03,72.34 -388.61,-48.57l0 -364.3c-96.27,-22.44 -461.46,-80.5 -461.46,72.86 0,862.86 127.96,801.48 922.93,801.48 243.37,0 412.87,-194.75 412.87,-437.17 0,-1047.29 98.22,-869.81 -397.75,-1035.19 -158.38,-52.81 -323.15,-119.16 -476.59,-154.9 0,-195.38 -12.79,-399.48 24.3,-558.6 155.79,-36.28 208.49,-36.28 364.31,0 21.4,91.86 25.76,96.85 23.72,219.13 -3.84,229.46 -48.48,193.75 389.15,193.75 112.02,0 72.86,-136.52 72.86,-412.88 0,-466.22 -358.42,-485.73 -728.61,-485.73 -387.43,0 -607.19,122.95 -607.19,510.03z"/>
   <path class="fil0" d="M9088.71 832.98l0 2501.56c0,55.94 16.89,72.87 72.86,72.87l1190.08 0c107.92,0 72.87,-113.4 72.87,-364.31 0,-55.97 -16.9,-72.86 -72.87,-72.86l-801.47 0 0 -655.76c782.83,0 680.05,89.04 680.05,-388.61 0,-55.96 -16.9,-72.86 -72.86,-72.86l-607.19 0 0 -655.75 801.47 0c107.92,0 72.87,-113.37 72.87,-364.28 0,-56.86 -40.31,-97.16 -97.16,-97.16l-1141.49 0c-56.86,0 -97.16,40.3 -97.16,97.16z"/>
   <path class="fil0" d="M15646.29 760.12c-37.58,161.27 -37.58,275.87 0,437.14l412.88 0 0 2137.28c0,115.98 162.59,72.87 461.46,72.87l0 -2210.15c476.24,0 440.85,37.43 439.27,-167.9 -0.69,-89.76 -2.1,-179.26 -2.1,-269.24 -170.07,-39.65 -1176.66,-52.36 -1311.51,0z"/>
   <path class="fil0" d="M1998.06 2945.94c-3.24,0.57 -8.61,-6.31 -9.33,-3.1 -14.6,64.6 -15.77,-4.13 -17.95,-3.64 -41.2,8.86 37,-69.77 -23.5,12.5 -37.06,50.43 -154.01,750.22 -71.88,885.39 59.58,-77.19 -1.09,-67.56 43.57,-156.8 22.58,111.99 -0.86,143.29 53.56,238.84 71.05,-32.73 22.63,-16.87 90.04,-58 30.21,-18.45 70.28,-36.86 92.14,-50.66 41.51,-251.37 36.8,-764.99 157.86,-940.66 81.44,76.65 190.93,406.73 243.88,536.45 103.7,253.87 146.13,305.04 184.28,617.29 105.19,45.87 46.82,43.86 129.11,15.63 221.14,-75.9 86.92,-281.69 230.95,-416.34l-26.33 273.28c40.33,-39.09 41.71,-18.9 59.69,-149.16 9.61,-69.59 17.73,-126.02 29.38,-193.4l213.25 -1089.28c-83.45,66.35 11.04,51.29 -87.92,85.16 -69.68,-129.34 178.85,-111.41 -199.11,-175.35 -64.63,87.4 -163.82,646.52 -194.55,812.32 -8.46,45.64 -16.46,94.61 -27.11,144.46 -4.67,21.77 -7.85,39.73 -14.37,60.39 -32.15,101.6 44.7,-109.01 -13.94,36.91l-17.18 35.03c-67.18,-85.91 -131.84,-242.77 -145.24,-371.71 52.5,47.53 34.63,29.98 64.95,94.38 -34.4,-188.38 -189.53,-552.63 -270.19,-740.04 -165.92,-26.62 24.27,38.1 -104.16,1.06 -50,-14.43 -209.35,-194.74 -295.03,-8.11 -20.54,44.74 -53.9,190.3 -69.77,246.69 -9.52,33.85 -25.79,89.07 -27.79,118.56 -10.04,148.85 2.21,4.42 22.69,141.91z"/>
   <path class="fil0" d="M14941.94 5204.62l170.02 0 24.3 -898.61c0,300.46 145.72,600.54 145.72,898.61l194.29 0 0 -1457.2c-238.69,0 -170.02,27.42 -170.02,680.02l-145.72 -680.02 -218.59 0 0 1457.2z"/>
   <path class="fil0" d="M12440.35 4378.88l0 -412.88c114.2,2.53 145.72,34.66 145.72,145.73l0 72.86c0,133.82 -17.35,183.62 -145.72,194.29zm-194.29 825.74l194.29 0 0 -607.16c204.7,4.56 145.72,166.12 145.72,607.16l194.32 0c-28.14,-338.23 18.67,-634.78 -121.46,-728.58 120.86,-180.47 97.16,-120.54 97.16,-437.18 0,-348.3 -266.89,-291.44 -510.03,-291.44l0 1457.2z"/>
   <path class="fil0" d="M9720.2 4767.45c0,-279.31 -41.51,-654.98 72.86,-825.74 53.55,28.34 97.13,21.19 97.13,97.15 0,257.2 28.34,745.58 -24.27,971.48 -62.62,-1.41 -145.72,58.6 -145.72,-242.89zm-170.02 -704.32l0 850.05c0,392.59 534.32,506.62 534.32,-121.43 0,-230.86 28.6,-737.68 -54.93,-916.57 -123.69,-264.82 -479.39,-169.73 -479.39,187.95z"/>
   <path class="fil0" d="M17905.01 4111.73l24.26 0c0,236.62 48.6,399.53 48.6,607.16l-121.46 0c0,-225.01 48.6,-402.89 48.6,-607.16zm-291.45 1092.89c132.56,0 173.29,34.25 193.2,-73.95 32.15,-174.72 -83.71,-193.2 195.38,-193.2 2.38,105.68 24.29,132.5 24.29,267.15l194.29 0c-24.78,-106.45 -35.57,-248.27 -48.56,-364.3l-92.72 -757.34c-10.15,-83.39 -14.91,-134.5 -22.54,-196.03 -18.59,-149.95 17.67,-139.53 -200.49,-139.53 -93.43,0 -79.86,120.42 -96.47,316.4l-146.38 1140.8z"/>
   <polygon class="fil0" points="20358.01,5204.62 20819.48,5204.62 20819.48,4986.04 20528.03,4986.04 20528.03,3747.42 20358.01,3747.42 "/>
   <path class="fil0" d="M7194.3 4913.18c0,86.34 -47.33,72.86 -145.72,72.86 0,91.88 -20.85,242.88 48.56,242.88 240.71,0 291.45,-197.1 291.45,-437.17l0 -971.47c0,-91.94 -56.65,-72.86 -194.29,-72.86l0 1165.76z"/>
  </g>
 </g>
</svg>
