<?xml version="1.0" encoding="UTF-8"?>
<!DOCTYPE svg PUBLIC "-//W3C//DTD SVG 1.1//EN" "http://www.w3.org/Graphics/SVG/1.1/DTD/svg11.dtd">
<!-- Creator: CorelDRAW 2021.5 (Versão de avaliação) -->
<svg xmlns="http://www.w3.org/2000/svg" xml:space="preserve" width="55mm" height="55mm" version="1.1" style="shape-rendering:geometricPrecision; text-rendering:geometricPrecision; image-rendering:optimizeQuality; fill-rule:evenodd; clip-rule:evenodd"
viewBox="0 0 5500 5500"
 xmlns:xlink="http://www.w3.org/1999/xlink"
 xmlns:xodm="http://www.corel.com/coreldraw/odm/2003">
 <defs>
  <style type="text/css">
   <![CDATA[
    .fil0 {fill:#8B0300}
   ]]>
  </style>
 </defs>
 <g id="Camada_x0020_1">
  <metadata id="CorelCorpID_0Corel-Layer"/>
  <path class="fil0" d="M2063.45 2900.91c-20.48,-137.49 -32.73,6.94 -22.69,-141.91 2,-29.49 18.27,-84.71 27.79,-118.56 15.87,-56.39 49.23,-201.95 69.77,-246.69 85.68,-186.63 245.03,-6.32 295.03,8.11 128.43,37.04 -61.76,-27.68 104.16,-1.06 80.66,187.41 235.79,551.66 270.19,740.04 -30.32,-64.4 -12.45,-46.85 -64.95,-94.38 13.4,128.94 78.06,285.8 145.24,371.71l17.18 -35.03c58.64,-145.92 -18.21,64.69 13.94,-36.91 6.52,-20.66 9.7,-38.62 14.37,-60.39 10.65,-49.85 18.65,-98.82 27.11,-144.46 30.73,-165.8 129.92,-724.92 194.55,-812.32 377.96,63.94 129.43,46.01 199.11,175.35 98.96,-33.87 4.47,-18.81 87.92,-85.16l-213.25 1089.28c-11.65,67.38 -19.77,123.81 -29.38,193.4 -17.98,130.26 -19.36,110.07 -59.69,149.16l26.33 -273.28c-144.03,134.65 -9.81,340.44 -230.95,416.34 -82.29,28.23 -23.92,30.24 -129.11,-15.63 -38.15,-312.25 -80.58,-363.42 -184.28,-617.29 -52.95,-129.72 -162.44,-459.8 -243.88,-536.45 -121.06,175.67 -116.35,689.29 -157.86,940.66 -21.86,13.8 -61.93,32.21 -92.14,50.66 -67.41,41.13 -18.99,25.27 -90.04,58 -54.42,-95.55 -30.98,-126.85 -53.56,-238.84 -44.66,89.24 16.01,79.61 -43.57,156.8 -82.13,-135.17 34.82,-834.96 71.88,-885.39 60.5,-82.27 -17.7,-3.64 23.5,-12.5 2.18,-0.49 3.35,68.24 17.95,3.64 0.72,-3.21 6.09,3.67 9.33,3.1zm515.28 -1383.34c-197.1,-15.38 -788.69,-267.9 -1222.67,94.4 -342.77,286.17 -382.47,580.69 -332.81,1167.94 58.34,689.98 515.88,1899.17 1160.65,1880.67 235.02,-6.74 394.4,-159.07 638.46,-90.48 211.52,59.41 403.29,156.8 626.72,32.65 649.99,-361.21 1171.41,-1996.01 787.63,-2735.62 -124.18,-239.38 -230.29,-227.16 -409.44,-374.86 5.25,-3.76 13.63,-15.23 16.33,-10.33 2.66,4.85 12.56,-8 16.29,-10.04 4.73,-2.61 26.71,-14.89 33.25,-18.19 182.84,-92.48 275.32,-117.32 464.42,-264.42 -108.95,-95.04 -131.5,-124.93 -312.42,-173.43 -762.44,-204.53 -1054,262.13 -1213.8,333.95 55.65,-435.22 334.04,-448.41 281.09,-694.53 -293.11,-128.03 -506.74,551.05 -533.7,862.29z"/>
 </g>
</svg>
